<svg width="226.777" height="226.777" xmlns="http://www.w3.org/2000/svg"><path d="M101.93 62.186c-28.345 6.292-54.365 24.216-70.25 48.39-24.556 37.374-24.556 87.26 0 124.633 33.952 51.67 105.034 66.255 156.933 32.198 51.705-33.93 66.3-104.965 32.22-156.83-25.072-38.157-74.46-58.257-118.904-48.391m66.382 64.094c41.199 16.658 40.332 73.278-1.354 88.399-11.672 4.234-12.988 3.653-19.634-8.67l-4.617-8.56 8.169-.428c24.978-1.31 36.75-27.71 20.2-45.3-6.905-7.341-10.548-8.166-36.198-8.195l-20.536-.024-1.56 2.788c-.857 1.533-4.607 8.593-8.334 15.688-3.727 7.095-8.11 15.355-9.74 18.357-8.149 15-9.729 17.935-13.514 25.095-2.248 4.252-4.087 8.605-4.087 9.675 0 1.828-.747 1.944-12.437 1.944H52.232l1.655-3.225c1.447-2.821 4.947-9.351 18.743-34.977 1.762-3.275 5.36-9.973 7.996-14.885 2.636-4.911 6.95-12.95 9.59-17.86 2.64-4.913 6.467-12.202 8.504-16.199l3.706-7.267 29.292.346 29.291.345 7.302 2.953m-53.216 42.396c1.461 2.865 5.61 10.79 9.219 17.613 3.61 6.821 8.163 15.529 10.12 19.35 1.956 3.82 4.457 7.95 5.558 9.178l2.001 2.232h-23.9l-3.267-6.201a1370.1 1370.1 0 0 0-11.635-21.582l-2.459-4.466 5.224-10.667c6.076-12.406 5.708-12.186 9.139-5.457" fill-rule="evenodd" style="stroke-width:.563305" transform="translate(-13.263 -59.694)"/></svg>