<svg xmlns="http://www.w3.org/2000/svg" viewBox="0 0 2000 2000"><path d="M1000,0C447.72,0,0,447.72,0,1000S447.72,2000,1000,2000s1000-447.72,1000-1000S1552.28,0,1000,0Zm473.06,1720H526.64V319.49h.55v-.72h169.6A141.23,141.23,0,0,0,787.28,286l80.84-67.44c23-24,72.53-40.54,129.93-40.54,53.14,0,99.56,14.22,124.41,35.34l.06-.05,86.31,72.43a141.25,141.25,0,0,0,90.8,33h171.09v57h.18V1460.11H828.7a10.17,10.17,0,0,1-9.5-13.79l68.39-179.68h.57l44.48-114a7.94,7.94,0,0,0-10.21-10.32l-212.66,80.23a14.63,14.63,0,0,1-18.64-19.39l258-609.28a19.06,19.06,0,0,1,17.54-11.62h208.63a11.36,11.36,0,0,1,10.5,15.69L1047.08,933.9a10.33,10.33,0,0,0,11.91,14l184.9-43.25c12-2.81,20.95,10.91,13.55,20.76l-256.15,341.23h357V430H638.54V1608.83h834.52Z"/></svg>
