<svg xmlns="http://www.w3.org/2000/svg" width="226.777" height="226.777"><path d="M113.233.364C50.611.364-.155 51.13-.155 113.752c0 62.623 50.766 113.389 113.388 113.389 62.622 0 113.389-50.766 113.389-113.389C226.622 51.13 175.855.364 113.233.364zm53.64 195.028H59.56V36.59h.062v-.081h19.23a16.014 16.014 0 0 0 10.261-3.716l9.166-7.647c2.608-2.721 8.224-4.597 14.733-4.597 6.025 0 11.289 1.613 14.107 4.008l.006-.006 9.786 8.213a16.016 16.016 0 0 0 10.296 3.742h19.4v6.463h.02v122.955H93.808a1.153 1.153 0 0 1-1.077-1.564l7.754-20.373h.065l5.044-12.927a.9.9 0 0 0-1.158-1.17l-24.113 9.097a1.659 1.659 0 0 1-2.114-2.198l29.254-69.086a2.161 2.161 0 0 1 1.99-1.317h23.655a1.288 1.288 0 0 1 1.191 1.779l-15.73 38.093a1.171 1.171 0 0 0 1.351 1.587l20.966-4.904c1.36-.319 2.375 1.237 1.536 2.354l-29.044 38.692h40.48V49.12H72.247v133.666h94.625z" style="stroke-width:.113388"/></svg>
