<svg xmlns="http://www.w3.org/2000/svg" width="400" height="400"><path d="M22.907 163.109v163.11l5.67 4.732c3.119 2.602 22.119 19.203 42.223 36.89L107.353 400h107.495c109.166 0 120.482-.62 125.24-6.856.485-.635 3.123-2.582 5.862-4.327 13.174-8.39 24.799-24.756 26.895-37.864.652-4.08 1.875-7.844 2.717-8.365 3.343-2.066 1.845-246.176-1.553-252.974-7.067-14.14-16.22-20.892-28.322-20.892-6.648 0-6.952-.256-7.989-6.746-2.222-13.894-16.696-26.734-30.137-26.734-3.692 0-4.418-1.046-5.436-7.835-.654-4.362-3.44-10.914-6.283-14.781C286.054-.683 293.894 0 150.835 0H22.907v163.109M274.89 26.432c3.462 3.462 3.524 5.873 3.524 137.345v133.821l-3.916 2.743c-3.444 2.412-17.269 2.743-114.538 2.743H49.339V22.907h111.013c108.664 0 111.088.075 114.538 3.525m-97.797 17.033c-13.756 1.681-27.888 4.425-30.545 5.931-1.614.915-6.98 3.138-11.922 4.939-27.543 10.038-56.858 41.978-64.149 69.894-1.266 4.846-3.17 9.923-4.231 11.283-4.56 5.844-2.411 63.206 2.896 77.31 8.027 21.331 25.661 40.822 42.127 46.562 6.184 2.156 6.33 4.88.625 11.66-10.429 12.395-4.112 15.253 33.48 15.147 35.95-.101 60.08-9.127 81.88-30.626 13.178-12.996 15.271-16.268 26.531-41.468 21.341-47.763-.995-128.099-39.486-142.017-3.503-1.267-6.369-2.954-6.369-3.749 0-1.882 9.292-16.171 11.013-16.936 12.135-5.393-17.171-10.946-41.85-7.93m134.449 18.561c1.605 1.606 2.114 32.588 2.114 128.67v126.555l-4.379 6.937c-2.409 3.816-6.175 7.884-8.37 9.04-2.195 1.156-4.556 2.974-5.247 4.04-.886 1.366-32.783 2.085-107.985 2.432l-106.729.494-6.886-5.78-6.885-5.78 107.254-.881c121.391-.997 111.13.321 122.487-15.735l5.287-7.473.487-122.317c.523-131.565.315-128.738 8.852-120.202m37.753 33.708c.721 1.135 1.324 57.087 1.339 124.337l.027 122.274-3.965 8.028c-12.934 26.191-10.777 25.747-128.195 26.347l-99.562.508-6.521-6.151-6.521-6.151 95.51-.525 95.509-.524 10.32-5.229c10.965-5.556 21.579-16.181 26.945-26.973 3.063-6.16 3.294-13.776 3.753-123.484l.489-116.919 4.78 1.2c2.629.66 5.37 2.128 6.092 3.262m-145.633 32.233c13.871 47.716-17.933 91.064-55.639 75.834-13.72-5.541-14.102-5.321-14.102 8.134 0 12.69-1.66 12.042-9.847-3.844-21.034-40.815 10.995-95.468 48.696-83.091 13.211 4.337 13.258 4.312 15.861-8.225l2.083-10.037 5.023 5.622c2.762 3.091 6.329 10.115 7.925 15.607" fill-rule="evenodd"/></svg>