<svg width="226.777" height="226.777" xmlns="http://www.w3.org/2000/svg"><path d="M102.913.201C48.616 5.641 7.249 46.246.38 100.845c-.507 4.026-.507 21.068 0 25.094 6.778 53.883 46.541 93.65 100.418 100.43 4.026.506 21.066.506 25.092 0 53.877-6.78 93.64-46.547 100.419-100.43.506-4.026.506-21.068 0-25.094-6.717-53.39-45.58-92.745-99.01-100.258C123.499.052 107.006-.21 102.914.2m21.85 13.529c1.007.155 3.234.463 4.948.685 1.713.222 3.426.52 3.806.662.38.142 1.451.351 2.382.466.93.114 1.897.317 2.149.45.251.135 1.266.43 2.255.657 2.388.547 4.768 1.228 5.464 1.564.31.15 1.007.397 1.55.55 1.33.375 3.338 1.092 4.37 1.562.465.21 1.543.673 2.396 1.026 3.315 1.371 11.767 5.713 12.448 6.395.194.193.446.352.56.352.329 0 8.002 5.207 8.557 5.806.157.17 1.55 1.311 3.097 2.538 3.577 2.836 10.026 9.293 12.928 12.944 1.233 1.551 2.319 2.883 2.414 2.96.096.079.553.713 1.018 1.41.464.699.932 1.336 1.039 1.416.247.186 1.639 2.23 1.639 2.407 0 .072.422.732.939 1.467 1.828 2.605 4.795 8.108 7.03 13.038.317.698.746 1.606.955 2.017.209.412.38.921.38 1.132 0 .211.253.858.564 1.436.31.579.568 1.275.573 1.546.005.273.254 1.003.554 1.623.3.62.55 1.356.554 1.636.006.279.183.85.396 1.268.211.42.474 1.269.583 1.89.11.62.377 1.698.593 2.396.68 2.189 1.518 6.51 2.405 12.407.775 5.157.525 20.7-.415 25.799-.92 4.98-1.06 5.71-1.443 7.472-.43 1.978-1.317 5.263-1.79 6.626-.16.465-.568 1.67-.905 2.679-.938 2.81-1.98 5.468-2.262 5.766-.14.147-.253.455-.253.684 0 .403-3.945 8.418-5.174 10.513-.333.567-1.028 1.758-1.545 2.644-.517.887-1.057 1.755-1.202 1.929-.145.174-.554.76-.91 1.302-1.977 3.016-5.416 7.576-7.09 9.402-.548.596-.995 1.14-.995 1.209 0 .194-10.766 10.834-12.088 11.946-.645.543-1.494 1.273-1.887 1.622-.393.348-.809.634-.925.634-.116 0-.649.44-1.184.978-.535.538-1.125.982-1.311.987-.187.005-.44.167-.564.361-.23.36-5.285 3.877-5.572 3.877-.086 0-.795.448-1.575.997-2.114 1.486-8.483 4.842-12.814 6.753-1.823.804-3.424 1.47-4.3 1.786-1.723.626-2.75.989-4.158 1.473-.775.266-1.853.638-2.397.827a21.16 21.16 0 0 1-2.203.593 31.84 31.84 0 0 0-2.537.66c-1.416.442-3.4.872-6.113 1.326-.931.156-2.644.473-3.807.704-6.267 1.247-24.284 1.225-29.94-.036-1.039-.231-2.23-.421-2.65-.421-.884 0-5.08-.934-7.726-1.72-1.008-.299-2.061-.542-2.34-.54-.28.003-.85-.17-1.269-.38-.418-.213-1.232-.471-1.807-.575-.575-.104-1.399-.374-1.832-.6-.433-.226-.978-.416-1.21-.422-.233-.006-.93-.257-1.55-.556-.621-.3-1.322-.55-1.56-.555-.236-.005-.68-.183-.986-.394a5.447 5.447 0 0 0-1.26-.6c-.982-.299-6.936-3.076-8.177-3.814-.232-.138-1.501-.854-2.82-1.592-1.317-.738-2.563-1.504-2.768-1.704-.205-.2-.492-.364-.638-.364-.145 0-.897-.444-1.67-.987-3.574-2.506-4.208-2.963-6.06-4.363-6.823-5.158-15.445-14.079-20.365-21.07-1.589-2.259-3.645-5.34-3.818-5.724-.105-.232-.508-.93-.895-1.55a30.809 30.809 0 0 1-1.128-1.974 22.968 22.968 0 0 0-.682-1.269c-.142-.232-.398-.74-.568-1.128-.17-.388-.428-.895-.573-1.128a5.866 5.866 0 0 1-.424-.845 5.779 5.779 0 0 0-.423-.847c-.334-.534-1.205-2.506-1.994-4.51a76.748 76.748 0 0 0-1.151-2.757c-.298-.664-.542-1.36-.542-1.546 0-.186-.238-.976-.53-1.755-.873-2.33-1.198-3.33-1.467-4.516a53.09 53.09 0 0 0-.664-2.538 50.5 50.5 0 0 1-1.317-5.921c-.152-.93-.46-2.643-.684-3.807-1.122-5.805-1.113-22.746.014-27.914.22-1.008.404-2.2.41-2.649.01-.947.94-5.125 1.729-7.783.299-1.008.542-2.064.54-2.345-.003-.282.141-.783.319-1.115.177-.332.483-1.18.68-1.884.486-1.739.948-3.034 1.573-4.415.289-.638.525-1.315.525-1.507 0-.192.18-.685.401-1.097.22-.412.675-1.383 1.009-2.159 2.556-5.928 8.131-15.594 10.502-18.206.27-.3.493-.62.493-.715 0-.158.906-1.362 1.78-2.366.203-.233 1.185-1.438 2.183-2.679.997-1.24 2.67-3.125 3.717-4.188 1.048-1.064 1.906-1.973 1.906-2.022 0-.117 2.554-2.672 2.671-2.672.05 0 1.05-.92 2.224-2.044 2.422-2.321 2.538-2.425 4.69-4.159.866-.698 1.76-1.427 1.986-1.619.512-.437 2.966-2.273 4.084-3.056l2.315-1.621c.812-.57 1.519-1.035 1.57-1.035.052 0 1.442-.81 3.09-1.8 3.945-2.37 11.412-6.038 14.726-7.236.93-.336 2.072-.768 2.537-.961.465-.193 1.734-.621 2.82-.952 1.085-.33 2.767-.857 3.736-1.17.97-.313 2.001-.57 2.292-.57.29 0 .956-.175 1.479-.39.522-.217 1.648-.486 2.5-.6.854-.114 1.834-.314 2.18-.445.346-.13 2.25-.45 4.23-.709 1.98-.258 4.17-.563 4.868-.676 1.948-.315 18.511-.306 20.581.012m-16.774 3.272c-.776.062-3.775.298-6.665.524-2.89.227-5.555.526-5.92.665-.367.138-1.49.34-2.5.447-1.007.107-2.402.366-3.1.575-.698.209-1.776.464-2.397.565-.62.101-1.698.356-2.396.565-.698.21-2.22.662-3.383 1.006-2.321.685-3.309 1.022-5.644 1.921-.856.33-1.667.6-1.802.6s-.83.267-1.545.594c-.715.327-1.68.761-2.146.965-3.63 1.592-9.234 4.502-11.418 5.93-.698.456-1.4.892-1.56.97-.845.408-5.38 3.554-5.573 3.865-.124.2-.346.364-.493.364-.147 0-.507.222-.798.493-.292.272-.861.747-1.266 1.058-2.943 2.255-4.405 3.561-7.418 6.626-4.217 4.287-4.776 4.894-5.502 5.963-.655.965-1.107 1.54-1.94 2.467-.244.272-.525.707-.625.966-.1.26-.303.473-.453.473-.15 0-.352.252-.45.562-.098.309-.332.721-.519.916-.326.34-2.278 3.215-2.865 4.221l-1.732 2.96c-1.612 2.754-3.133 5.699-4.048 7.835a40.5 40.5 0 0 1-.836 1.853c-.402.764-1.896 4.69-3.106 8.157-.334.958-.76 2.46-1.44 5.075-.182.698-.567 2.083-.857 3.079-.29.995-.527 2.21-.527 2.698s-.18 1.514-.402 2.279c-.222.764-.486 2.278-.587 3.364-.101 1.085-.364 3.408-.584 5.16-.738 5.874-.493 13.346.725 22.19.518 3.76 1.729 9.414 2.58 12.055.288.892.524 1.82.524 2.062 0 .243.155.718.344 1.057.19.338.492 1.124.672 1.743a30.904 30.904 0 0 0 1.56 4.26c.289.638.525 1.294.525 1.458 0 .165.185.658.41 1.097.226.44 1.251 2.511 2.278 4.605 1.026 2.094 2.168 4.314 2.536 4.934.368.62.764 1.319.879 1.551.115.233.691 1.121 1.281 1.974s1.073 1.657 1.073 1.788c.001.244.353.727 4.227 5.8 5.12 6.704 13.109 14.724 18.258 18.328.97.679 1.762 1.322 1.762 1.43 0 .107.286.344.634.526.593.308 1.086.623 2.778 1.77 4.228 2.866 9.468 5.758 14.914 8.23 2.997 1.36 5.66 2.447 6.026 2.458.175.005.825.254 1.445.554.62.3 1.358.55 1.64.554.281.006.761.144 1.067.308.85.454 5.725 1.748 9.557 2.535.853.175 2.376.498 3.383.718 1.008.219 3.038.523 4.51.675 1.474.151 3.568.401 4.653.553 2.564.36 14.97.366 17.339.008 1.007-.153 3.101-.403 4.652-.558 1.55-.154 3.644-.46 4.651-.679 1.009-.219 2.468-.53 3.243-.69 2.268-.47 4.753-1.07 5.797-1.4l2.379-.752c.775-.245 1.98-.617 2.678-.827 1.865-.56 3.655-1.218 6.907-2.538 2.274-.923 7.918-3.68 9.868-4.821.62-.363 1.509-.863 1.974-1.11 2.346-1.248 7.379-4.649 8.258-5.58.257-.272.58-.494.717-.494s.902-.534 1.7-1.186c2.003-1.64 2.086-1.713 3.946-3.463.91-.855 1.695-1.554 1.747-1.554.392 0 8.582-8.946 8.582-9.375 0-.116.223-.442.494-.725.87-.903 5.517-7.697 6.206-9.073.195-.388.623-1.15.953-1.692 1.449-2.386 4.724-9.213 5.308-11.063.182-.58.45-1.127.593-1.215.144-.089.261-.413.261-.72 0-.308.254-1.056.564-1.664.31-.608.564-1.314.564-1.568s.182-.862.404-1.35c.46-1.01 1.15-3.462 1.685-5.993.2-.947.453-1.865.561-2.04.179-.289.519-2.124 1.29-6.954 1.18-7.397 1.487-17.316.712-22.98-.223-1.628-.41-3.508-.414-4.177-.005-.67-.251-2.319-.547-3.666a401.417 401.417 0 0 1-.857-3.999c-.549-2.66-1.079-4.9-1.369-5.78-.153-.466-.49-1.48-.75-2.256a40.827 40.827 0 0 1-.724-2.415 10.106 10.106 0 0 0-.684-1.833c-.237-.455-.432-.97-.433-1.144-.002-.3-.63-1.9-1.591-4.054-1.006-2.254-1.61-3.548-1.836-3.947-.133-.232-.368-.74-.522-1.128-.155-.387-.41-.895-.565-1.128a6.548 6.548 0 0 1-.469-.845c-.496-1.137-3.686-6.489-5.09-8.541l-2.26-3.302a21.52 21.52 0 0 0-1.295-1.692c-.341-.387-1.646-1.973-2.901-3.524-2.764-3.417-7.798-8.497-11.243-11.345a194.476 194.476 0 0 1-3.242-2.725c-1.546-1.377-8.293-6.09-8.716-6.09-.13 0-.369-.16-.53-.354-.162-.194-1.096-.777-2.078-1.294a111.626 111.626 0 0 1-2.914-1.592c-1.407-.811-3.164-1.715-4.088-2.103a10.89 10.89 0 0 1-1.127-.55c-1.604-.966-9.297-3.92-13.251-5.087a484.677 484.677 0 0 1-3.383-1.012 20.313 20.313 0 0 0-2.538-.567 21.39 21.39 0 0 1-2.537-.555 20.216 20.216 0 0 0-2.679-.551 61.835 61.835 0 0 1-3.383-.564c-2.985-.586-14.928-1.325-17.761-1.098m-7.472 17.241c2.283.546 4.574 1.144 8.317 2.17.93.256 2.833.761 4.23 1.125 1.395.363 3.742.98 5.215 1.372 1.473.392 3.947 1.047 5.498 1.456 5.91 1.558 6.844 1.805 9.585 2.535 1.551.413 4.215 1.11 5.921 1.552 1.706.44 4.37 1.14 5.92 1.552 5.342 1.422 7.058 1.874 10.15 2.675 1.706.442 4.307 1.129 5.78 1.525 1.473.397 2.995.8 3.383.893.388.095 1.53.4 2.537.679 1.008.278 2.351.647 2.984.818 1.408.38 1.548.657 2.802 5.529.52 2.018 1.214 4.685 1.544 5.925 1.02 3.833 2.848 10.917 3.238 12.547.204.853.646 2.566.981 3.807.336 1.24 1.1 4.159 1.698 6.485A633.123 633.123 0 0 0 182 93.373c.338 1.24.785 2.954.994 3.807.208.853.65 2.565.98 3.806.33 1.24.77 2.954.978 3.806.207.853.65 2.567.983 3.807 1.245 4.638 2.898 11.051 3.256 12.638.203.903.46 1.855.568 2.115.348.831.936 3.833.795 4.06-.215.348-1.666.256-2.982-.188a32.56 32.56 0 0 0-2.336-.679c-.62-.15-2.143-.551-3.383-.894-1.24-.343-4.032-1.101-6.203-1.685-11.082-2.981-9.789-2.315-10.59-5.455-.282-1.11-.787-3.032-1.122-4.273-.336-1.24-.71-2.7-.834-3.242-.123-.543-.49-1.97-.816-3.172l-1.187-4.37a564.958 564.958 0 0 1-1.128-4.23l-1.068-4.088a400.73 400.73 0 0 0-1.156-4.3 97.66 97.66 0 0 1-.967-3.807c-.423-1.899-1.042-3.243-1.496-3.243-.186 0-14.753 14.338-32.369 31.862-17.615 17.524-32.16 31.908-32.318 31.965-.159.056-1.323-.16-2.587-.481a200.625 200.625 0 0 0-4.977-1.178c-5.075-1.125-4.524-.155-6.664-11.72-.174-.94-2.45 1.366 52.62-53.328 10.502-10.431 11.38-11.376 10.962-11.794-.386-.386-5.37-1.973-10.54-3.354-2.42-.647-8.902-2.491-12.405-3.529a577.58 577.58 0 0 0-12.405-3.548c-2.291-.626-2.477-.88-3.402-4.641a153.03 153.03 0 0 0-.93-3.525 567.823 567.823 0 0 1-2.285-8.459 350.958 350.958 0 0 0-1.136-4.23c-1.372-4.963-1.515-4.823 3.665-3.583m-11.616.695c.161.195.383.734.492 1.199.305 1.298 2.783 10.15 3.749 13.391.3 1.008.83 2.912 1.178 4.23.347 1.318.806 2.875 1.018 3.46.753 2.069.6 2.437-2.08 5.019-1.356 1.307-13.672 13.478-27.37 27.048-13.696 13.57-25.096 24.715-25.333 24.769-.708.159-.887-.233-1.909-4.198-.538-2.087-1.41-5.444-1.94-7.46-.527-2.016-1.436-5.505-2.02-7.754-.582-2.249-1.174-4.31-1.315-4.582-.427-.824-.15-1.124 14.353-15.504 7.705-7.64 19.913-19.756 27.128-26.925C87.918 34.649 88.341 34.266 88.9 34.938m14.819 30.122c1.727.478 3.839 1.1 4.691 1.382.853.281 2.566.79 3.806 1.128 1.241.34 2.763.78 3.384.98.62.201 2.015.618 3.1.927 5.307 1.51 6.344 1.892 6.344 2.336 0 .552 3.79-3.292-29.284 29.7-17.77 17.724-28.23 28.358-28.23 28.697 0 .296.24 1.518.535 2.716.295 1.198.815 3.446 1.156 4.997.342 1.55.87 3.898 1.173 5.216.302 1.318.75 3.285.994 4.37.806 3.583.706 3.493 4.882 4.395 1.318.285 3.538.788 4.934 1.118 1.395.33 3.362.764 4.37.963 2.802.555 6.845 1.492 7.435 1.723.432.169 5.739-5.014 29.279-28.597 15.813-15.842 28.855-28.804 28.982-28.804.256 0 .936 1.99 1.35 3.948.148.698.61 2.537 1.028 4.089 2.065 7.677 3.513 13.388 3.527 13.914.005.21-10.947 11.375-24.34 24.813-13.39 13.438-26.68 26.812-29.532 29.721-5.721 5.839-5.488 5.701-8.304 4.878-.764-.224-2.912-.804-4.774-1.289a1407.22 1407.22 0 0 1-9.655-2.55l-4.088-1.095a1088.068 1088.068 0 0 0-9.656-2.552 819.731 819.731 0 0 1-5.921-1.563 159.7 159.7 0 0 0-3.947-1.018c-3.14-.724-3.422-.998-4.19-4.073a195.26 195.26 0 0 0-.962-3.64c-.3-1.086-1.204-4.512-2.01-7.613a616.216 616.216 0 0 0-2.298-8.6c-1.156-4.124-1.762-6.32-2.956-10.715-.57-2.093-1.54-5.622-2.159-7.842l-1.123-4.037 25.5-25.57C80.788 83.45 93.835 70.35 95.756 68.403c4.729-4.797 3.926-4.46 7.964-3.342m61.268 63.026c.736.25 1.914.616 2.618.814.704.197 2.866.831 4.804 1.407 1.938.577 4.349 1.29 5.357 1.584 1.007.294 2.72.796 3.806 1.117 1.085.32 2.608.752 3.383.96 2.644.71 3.665 1.174 3.665 1.669 0 .262-12.161 12.715-27.025 27.674-29.941 30.134-27.259 27.747-30.127 26.798-1.454-.481-11.91-3.473-13.895-3.976-4.152-1.052-9.27-2.674-9.473-3.002-.3-.485-3.403 2.72 30.6-31.609 17.591-17.76 23.83-23.89 24.307-23.89.353 0 1.244.204 1.98.454" fill-rule="evenodd"/></svg>