<svg width="217" height="217" viewBox="0 0 217 217" fill="none" xmlns="http://www.w3.org/2000/svg">
<path d="M108.428 216.855C168.311 216.855 216.855 168.311 216.855 108.428C216.855 48.5448 168.311 0 108.428 0C48.5448 0 0 48.5448 0 108.428C0 168.311 48.5448 216.855 108.428 216.855Z" />
<path d="M178.609 172.297C161.313 192.229 135.823 204.808 107.343 204.808C55.2769 204.808 13.022 162.575 13.022 110.487C13.022 85.3293 22.8992 62.4523 38.9552 45.5326C24.6487 62.0537 16.0117 83.6019 16.0117 107.188C16.0117 159.275 58.2445 201.508 110.332 201.508C137.218 201.53 161.446 190.302 178.609 172.297Z" fill="black"/>
<path d="M178.698 172.231C193.026 155.688 201.685 134.117 201.685 110.509C201.685 58.4216 159.475 16.1888 107.365 16.1888C80.5015 16.1888 56.2736 27.417 39.0881 45.444C56.3843 25.5124 81.8746 12.9333 110.355 12.9333C162.442 12.9333 204.675 55.1661 204.675 107.254C204.675 132.412 194.798 155.289 178.698 172.231Z" fill="black" />
<path d="M39.243 107.808C38.0693 107.808 36.674 107.121 36.2311 105.571L31.7133 90.6443C31.3811 89.537 31.6911 88.3411 32.5106 87.5439L80.3463 39.7081C81.0993 38.9551 81.963 38.778 82.5388 38.778C83.7347 38.778 85.1521 39.4866 85.595 41.1033L89.8249 56.3399C90.1128 57.425 89.8028 58.5766 89.0055 59.3739L41.4355 106.9C40.6825 107.653 39.8188 107.808 39.243 107.808Z" fill="black"/>
<path d="M152.942 118.681L148.202 100.832C147.737 99.0599 145.523 98.462 144.216 99.7686L92.7039 151.236C91.3751 152.565 89.4484 153.074 87.6324 152.587L71.7093 148.047C69.8933 147.56 68.4981 146.143 68.0109 144.327L63.4488 128.381C62.9616 126.565 63.4931 124.639 64.7997 123.31L116.312 71.798C117.618 70.4913 117.02 68.2767 115.249 67.8116L97.3546 63.0945C95.5386 62.6073 93.6119 63.1388 92.3053 64.4454L41.5462 115.204C40.2396 116.511 39.7081 118.438 40.1731 120.232L51.4677 160.804C51.9549 162.642 53.3723 164.081 55.2326 164.568L95.7822 175.841C97.5761 176.306 99.5028 175.796 100.809 174.468L151.546 123.731C152.897 122.402 153.407 120.475 152.942 118.681Z" fill="black"/>
<path d="M125.392 184.323L110.465 179.805C109.38 179.473 108.605 178.675 108.317 177.568C108.029 176.483 108.339 175.376 109.136 174.578L156.662 127.053C157.26 126.455 158.035 126.145 158.877 126.145C159.142 126.145 159.43 126.189 159.696 126.255L174.933 130.485C176.018 130.773 176.859 131.615 177.147 132.7C177.435 133.785 177.147 134.915 176.328 135.734L128.492 183.57C127.894 184.168 127.119 184.478 126.278 184.478C126.278 184.456 125.68 184.411 125.392 184.323Z" fill="black"/>
<path d="M163.527 50.7591L92.8588 32.2006C90.9986 31.7355 89.3376 33.485 89.9134 35.3232L95.6493 55.5426C95.8929 56.3178 96.4908 56.9157 97.2659 57.1593L126.565 64.9548C128.337 65.5084 128.891 67.723 127.584 69.0297L69.4725 127.119C68.8302 127.761 68.6088 128.692 68.8524 129.533L72.4622 141.935C72.7058 142.732 73.3259 143.374 74.1232 143.596L86.525 147.206C87.3887 147.449 88.3189 147.228 88.939 146.586L147.051 88.4962C148.357 87.1895 150.594 87.7432 151.125 89.5149L158.921 118.792C159.165 119.567 159.762 120.165 160.538 120.409L180.757 126.145C182.595 126.72 184.345 125.06 183.88 123.199L165.321 52.5308C165.078 51.6671 164.391 50.9805 163.527 50.7591Z" fill="black"/>
</svg>
