<svg width="226.777" height="226.777" viewBox="0 0 226.777 226.777" xmlns="http://www.w3.org/2000/svg"><path d="M108.428 216.855c59.883 0 108.427-48.544 108.427-108.427C216.855 48.545 168.311 0 108.428 0 48.545 0 0 48.545 0 108.428c0 59.883 48.545 108.427 108.428 108.427Z" style="fill:none" /><path d="M178.609 172.297c-17.296 19.932-42.786 32.511-71.266 32.511-52.066 0-94.321-42.233-94.321-94.321 0-25.158 9.877-48.035 25.933-64.954-14.306 16.52-22.943 38.069-22.943 61.655 0 52.087 42.233 94.32 94.32 94.32 26.886.022 51.114-11.206 68.277-29.211zm.089-.066c14.328-16.543 22.987-38.114 22.987-61.722 0-52.087-42.21-94.32-94.32-94.32-26.864 0-51.091 11.228-68.277 29.255 17.296-19.932 42.787-32.51 71.267-32.51 52.087 0 94.32 42.232 94.32 94.32 0 25.158-9.877 48.035-25.977 64.977z" style="fill:#000" /><path d="M39.243 107.808c-1.174 0-2.569-.687-3.012-2.237l-4.518-14.927a3.088 3.088 0 0 1 .798-3.1l47.835-47.836a3.089 3.089 0 0 1 2.193-.93c1.196 0 2.613.709 3.056 2.325l4.23 15.237a3.143 3.143 0 0 1-.82 3.034L41.435 106.9a3.051 3.051 0 0 1-2.192.908zm113.699 10.873-4.74-17.849c-.465-1.772-2.679-2.37-3.986-1.063l-51.512 51.467a5.236 5.236 0 0 1-5.072 1.351l-15.923-4.54a5.233 5.233 0 0 1-3.698-3.72l-4.562-15.946a5.287 5.287 0 0 1 1.35-5.071l51.513-51.512c1.306-1.307.708-3.521-1.063-3.986l-17.894-4.718a5.234 5.234 0 0 0-5.05 1.351l-50.759 50.759a5.273 5.273 0 0 0-1.373 5.028l11.295 40.572a5.266 5.266 0 0 0 3.765 3.764l40.55 11.273a5.22 5.22 0 0 0 5.026-1.373l50.737-50.737a5.234 5.234 0 0 0 1.396-5.05zm-27.55 65.642-14.927-4.518c-1.085-.332-1.86-1.13-2.148-2.237-.288-1.085.022-2.192.819-2.99l47.526-47.525a3.079 3.079 0 0 1 2.215-.908c.265 0 .553.044.819.11l15.237 4.23a3.112 3.112 0 0 1 2.214 2.215 3.106 3.106 0 0 1-.819 3.034l-47.836 47.836a3.078 3.078 0 0 1-2.214.908c0-.022-.598-.067-.886-.155z" style="fill:#000" /><path d="M163.527 50.76 92.859 32.2c-1.86-.465-3.521 1.285-2.946 3.123l5.736 20.22a2.459 2.459 0 0 0 1.617 1.616l29.299 7.796c1.772.553 2.326 2.768 1.019 4.075l-58.112 58.089a2.452 2.452 0 0 0-.62 2.414l3.61 12.402c.244.797.864 1.439 1.661 1.661l12.402 3.61c.864.243 1.794.022 2.414-.62l58.112-58.09c1.306-1.306 3.543-.753 4.074 1.019l7.796 29.277a2.46 2.46 0 0 0 1.617 1.617l20.219 5.736c1.838.575 3.588-1.085 3.123-2.946l-18.559-70.668a2.54 2.54 0 0 0-1.794-1.772z" style="fill:#000" /></svg>
