<?xml version="1.0" encoding="UTF-8" standalone="no"?>
<!-- Created with Inkscape (http://www.inkscape.org/) -->

<svg
   width="226.77699mm"
   height="226.77699mm"
   viewBox="0 0 226.777 226.777"
   version="1.1"
   id="svg5"
   sodipodi:docname="UTED.svg"
   inkscape:version="1.1.1 (3bf5ae0d25, 2021-09-20)"
   xmlns:inkscape="http://www.inkscape.org/namespaces/inkscape"
   xmlns:sodipodi="http://sodipodi.sourceforge.net/DTD/sodipodi-0.dtd"
   xmlns="http://www.w3.org/2000/svg"
   xmlns:svg="http://www.w3.org/2000/svg">
  <sodipodi:namedview
     id="namedview7"
     pagecolor="#ffffff"
     bordercolor="#666666"
     borderopacity="1.0"
     inkscape:pageshadow="2"
     inkscape:pageopacity="0.0"
     inkscape:pagecheckerboard="true"
     inkscape:document-units="mm"
     showgrid="false"
     scale-x="1"
     inkscape:zoom="0.73406285"
     inkscape:cx="397.10496"
     inkscape:cy="561.94098"
     inkscape:window-width="1920"
     inkscape:window-height="1009"
     inkscape:window-x="-8"
     inkscape:window-y="-8"
     inkscape:window-maximized="1"
     inkscape:current-layer="layer1" />
  <defs
     id="defs2" />
  <g
     inkscape:label="Layer 1"
     inkscape:groupmode="layer"
     id="layer1">
    <g
       id="g41"
       transform="matrix(0.26458333,0,0,0.26458333,25.737862,81.966017)">
      <path
         d="m 108.428,216.855 c 59.883,0 108.427,-48.544 108.427,-108.427 C 216.855,48.545 168.311,0 108.428,0 48.545,0 0,48.545 0,108.428 0,168.311 48.545,216.855 108.428,216.855 Z"
         id="path23"
         style="fill:none" />
      <path
         d="m 178.609,172.297 c -17.296,19.932 -42.786,32.511 -71.266,32.511 -52.066,0 -94.321,-42.233 -94.321,-94.321 0,-25.158 9.877,-48.035 25.933,-64.954 -14.306,16.52 -22.943,38.069 -22.943,61.655 0,52.087 42.233,94.32 94.32,94.32 26.886,0.022 51.114,-11.206 68.277,-29.211 z m 0.089,-0.066 c 14.328,-16.543 22.987,-38.114 22.987,-61.722 0,-52.087 -42.21,-94.32 -94.32,-94.32 -26.864,0 -51.091,11.228 -68.277,29.255 17.296,-19.932 42.787,-32.51 71.267,-32.51 52.087,0 94.32,42.232 94.32,94.32 0,25.158 -9.877,48.035 -25.977,64.977 z"
         id="path25"
         style="fill:#000000" />
      <path
         d="m 39.243,107.808 c -1.174,0 -2.569,-0.687 -3.012,-2.237 L 31.713,90.644 a 3.088,3.088 0 0 1 0.798,-3.1 L 80.346,39.708 a 3.089,3.089 0 0 1 2.193,-0.93 c 1.196,0 2.613,0.709 3.056,2.325 l 4.23,15.237 a 3.143,3.143 0 0 1 -0.82,3.034 L 41.435,106.9 a 3.051,3.051 0 0 1 -2.192,0.908 z m 113.699,10.873 -4.74,-17.849 c -0.465,-1.772 -2.679,-2.37 -3.986,-1.063 l -51.512,51.467 a 5.236,5.236 0 0 1 -5.072,1.351 l -15.923,-4.54 a 5.233,5.233 0 0 1 -3.698,-3.72 l -4.562,-15.946 a 5.287,5.287 0 0 1 1.35,-5.071 l 51.513,-51.512 c 1.306,-1.307 0.708,-3.521 -1.063,-3.986 L 97.355,63.094 a 5.234,5.234 0 0 0 -5.05,1.351 l -50.759,50.759 a 5.273,5.273 0 0 0 -1.373,5.028 l 11.295,40.572 a 5.266,5.266 0 0 0 3.765,3.764 l 40.55,11.273 a 5.22,5.22 0 0 0 5.026,-1.373 l 50.737,-50.737 a 5.234,5.234 0 0 0 1.396,-5.05 z m -27.55,65.642 -14.927,-4.518 c -1.085,-0.332 -1.86,-1.13 -2.148,-2.237 -0.288,-1.085 0.022,-2.192 0.819,-2.99 l 47.526,-47.525 a 3.079,3.079 0 0 1 2.215,-0.908 c 0.265,0 0.553,0.044 0.819,0.11 l 15.237,4.23 a 3.112,3.112 0 0 1 2.214,2.215 3.106,3.106 0 0 1 -0.819,3.034 l -47.836,47.836 a 3.078,3.078 0 0 1 -2.214,0.908 c 0,-0.022 -0.598,-0.067 -0.886,-0.155 z"
         id="path27"
         style="fill:#000000" />
      <path
         d="M 163.527,50.76 92.859,32.2 c -1.86,-0.465 -3.521,1.285 -2.946,3.123 l 5.736,20.22 a 2.459,2.459 0 0 0 1.617,1.616 l 29.299,7.796 c 1.772,0.553 2.326,2.768 1.019,4.075 l -58.112,58.089 a 2.452,2.452 0 0 0 -0.62,2.414 l 3.61,12.402 c 0.244,0.797 0.864,1.439 1.661,1.661 l 12.402,3.61 c 0.864,0.243 1.794,0.022 2.414,-0.62 l 58.112,-58.09 c 1.306,-1.306 3.543,-0.753 4.074,1.019 l 7.796,29.277 a 2.46,2.46 0 0 0 1.617,1.617 l 20.219,5.736 c 1.838,0.575 3.588,-1.085 3.123,-2.946 L 165.321,52.531 a 2.54,2.54 0 0 0 -1.794,-1.772 z"
         id="path29"
         style="fill:#000000" />
    </g>
  </g>
</svg>
